<svg width="43" height="28" viewBox="0 0 43 28" fill="none" xmlns="http://www.w3.org/2000/svg">
<g clip-path="url(#clip0_2401_450)" filter="url(#filter0_d_2401_450)">
<path d="M15.3431 0C13.3124 0 11.3649 0.8067 9.92893 2.24264L5.24264 6.92893C3.8067 8.36487 3 10.3124 3 12.3431C3 16.5719 6.42809 20 10.6569 20C12.6876 20 14.6351 19.1933 16.0711 17.7573L19.3126 14.5158C19.3126 14.5157 19.3127 14.5159 19.3126 14.5158L28.7573 5.07107C29.4431 4.38527 30.3733 4 31.3431 4C32.9669 4 34.3435 5.05827 34.8207 6.52271L37.8015 3.54197C36.4417 1.41223 34.0573 0 31.3431 0C29.3124 0 27.3649 0.8067 25.9289 2.24264L13.2427 14.9289C12.5569 15.6147 11.6267 16 10.6569 16C8.63723 16 7 14.3628 7 12.3431C7 11.3733 7.38527 10.4431 8.07107 9.75733L12.7573 5.07107C13.4431 4.38527 14.3733 4 15.3431 4C16.9669 4 18.3435 5.05832 18.8207 6.52281L21.8015 3.54205C20.4417 1.41227 18.0574 0 15.3431 0Z" fill="#3A6FF8"/>
<path d="M13.0439 14.9289C12.3581 15.6147 11.4279 16 10.4581 16C8.83453 16 7.45807 14.942 6.98067 13.4778L4 16.4585C5.35987 18.5879 7.74406 20 10.4581 20C12.4888 20 14.4363 19.1933 15.8723 17.7573L28.5585 5.07107C29.2443 4.38527 30.1745 4 31.1443 4C33.164 4 34.8012 5.63723 34.8012 7.65687C34.8012 8.62673 34.4159 9.55687 33.7301 10.2427L29.0439 14.9289C28.3581 15.6147 27.4279 16 26.4581 16C24.8344 16 23.4579 14.9418 22.9805 13.4775L19.9999 16.4582C21.3597 18.5879 23.7439 20 26.4581 20C28.4888 20 30.4363 19.1933 31.8723 17.7573L36.5585 13.0711C37.9945 11.6351 38.8012 9.6876 38.8012 7.65687C38.8012 3.42809 35.3731 0 31.1443 0C29.1136 0 27.1661 0.8067 25.7301 2.24264L13.0439 14.9289Z" fill="#3A6FF8"/>
</g>
<defs>
<filter id="filter0_d_2401_450" x="-1" y="0" width="44" height="28" filterUnits="userSpaceOnUse" color-interpolation-filters="sRGB">
<feFlood flood-opacity="0" result="BackgroundImageFix"/>
<feColorMatrix in="SourceAlpha" type="matrix" values="0 0 0 0 0 0 0 0 0 0 0 0 0 0 0 0 0 0 127 0" result="hardAlpha"/>
<feOffset dy="4"/>
<feGaussianBlur stdDeviation="2"/>
<feComposite in2="hardAlpha" operator="out"/>
<feColorMatrix type="matrix" values="0 0 0 0 0 0 0 0 0 0 0 0 0 0 0 0 0 0 0.25 0"/>
<feBlend mode="normal" in2="BackgroundImageFix" result="effect1_dropShadow_2401_450"/>
<feBlend mode="normal" in="SourceGraphic" in2="effect1_dropShadow_2401_450" result="shape"/>
</filter>
<clipPath id="clip0_2401_450">
<rect width="36" height="20" fill="white" transform="translate(3)"/>
</clipPath>
</defs>
</svg>
